<svg width="24" height="24" viewBox="0 0 24 24" fill="currentColor" xmlns="http://www.w3.org/2000/svg">
<g clip-path="url(#clip0_150_565)">
<path d="M11.9992 8.42757C10.0623 8.42757 8.47003 10.0203 8.47003 11.9568C8.47003 13.8932 10.0628 15.486 11.9992 15.486C13.9362 15.486 15.5285 13.8932 15.5285 11.9568C15.5285 10.0203 13.9362 8.42757 11.9992 8.42757Z" fill="currentColor"/>
<path d="M16.4757 3.3056H7.60916C6.31767 3.3056 5.19907 3.69278 4.46714 4.42472C3.69224 5.19961 3.30505 6.27577 3.30505 7.56674V16.3903C3.30505 17.7247 3.69224 18.8004 4.46714 19.5753C5.24203 20.3072 6.31819 20.6944 7.60916 20.6944H16.3898C17.6812 20.6944 18.7569 20.3072 19.5318 19.5753C20.3067 18.8434 20.7798 17.7677 20.7798 16.4333V7.56674C20.7798 6.31873 20.3491 5.24257 19.6177 4.46768C18.8433 3.69278 17.7672 3.3056 16.4757 3.3056ZM11.9992 17.4664C8.9431 17.4664 6.49004 15.0129 6.49004 11.9573C6.49004 8.9012 8.98658 6.44814 11.9992 6.44814C15.0123 6.44814 17.5084 8.94468 17.5084 11.9573C17.5084 14.9699 15.0553 17.4664 11.9992 17.4664ZM17.7242 7.56674C17.0347 7.56674 16.4762 7.0077 16.4762 6.31873C16.4762 5.62976 17.0352 5.07072 17.7242 5.07072C18.4132 5.07072 18.9722 5.62976 18.9722 6.31873C18.9722 7.0077 18.4132 7.56674 17.7242 7.56674Z" fill="currentColor"/>
<path d="M22.0641 1.98408C20.8062 0.67758 19.0157 0 16.9835 0H7.01598C2.80608 0 0 2.8066 0 7.01598V16.9354C0 19.0162 0.67758 20.8062 2.03222 22.1127C3.33873 23.3706 5.08056 24 7.06464 24H16.9359C19.0168 24 20.7586 23.3224 22.0164 22.1127C23.3229 20.8549 24.0005 19.0644 24.0005 16.9835V7.01598C23.9995 4.98376 23.3219 3.24193 22.0641 1.98408ZM22.6738 16.4333C22.6738 18.2843 22.0713 19.8765 20.9092 20.9957C19.7901 22.0718 18.2408 22.6743 16.3898 22.6743H7.60919C5.84458 22.6743 4.29479 22.1148 3.13271 20.9957C1.92766 19.8336 1.32514 18.2408 1.32514 16.3903V7.56674C1.32514 3.82219 3.82168 1.32566 7.56622 1.32566H16.4327C18.2403 1.32566 19.8331 1.92818 20.9522 3.09026C22.0713 4.20938 22.6738 5.75865 22.6738 7.56674V16.4333Z" fill="currentColor"/>
</g>
<defs>
<clipPath id="clip0_150_565">
<rect width="24" height="24" fill="currentColor"/>
</clipPath>
</defs>
</svg>
