<svg width="24" height="24" viewBox="0 0 24 24" fill="currentColor" xmlns="http://www.w3.org/2000/svg">
<g clip-path="url(#clip0_150_570)">
<path d="M17.507 14.307L17.498 14.382C15.299 13.286 15.069 13.14 14.785 13.566C14.588 13.861 14.014 14.53 13.841 14.728C13.666 14.923 13.492 14.938 13.195 14.803C12.895 14.653 11.932 14.338 10.792 13.318C9.90402 12.523 9.30802 11.548 9.13202 11.248C8.83902 10.742 9.45202 10.67 10.01 9.614C10.11 9.404 10.059 9.239 9.98502 9.09C9.91002 8.94 9.31302 7.47 9.06302 6.884C8.82302 6.3 8.57602 6.374 8.39102 6.374C7.81502 6.324 7.39402 6.332 7.02302 6.718C5.40902 8.492 5.81602 10.322 7.19702 12.268C9.91102 15.82 11.357 16.474 14.001 17.382C14.715 17.609 15.366 17.577 15.881 17.503C16.455 17.412 17.648 16.782 17.897 16.077C18.152 15.372 18.152 14.787 18.077 14.652C18.003 14.517 17.807 14.442 17.507 14.307Z" fill="currentColor"/>
<path d="M20.52 3.44902C12.831 -3.98399 0.106 1.40701 0.101 11.893C0.101 13.989 0.65 16.033 1.696 17.838L0 24L6.335 22.348C14.24 26.618 23.996 20.948 24 11.899C24 8.72302 22.76 5.73402 20.505 3.48802L20.52 3.44902ZM22.002 11.866C21.996 19.499 13.617 24.266 6.99 20.37L6.63 20.156L2.88 21.131L3.885 17.486L3.646 17.111C-0.478 10.546 4.26 1.96602 12.072 1.96602C14.726 1.96602 17.217 3.00102 19.093 4.87602C20.968 6.73502 22.002 9.22602 22.002 11.866Z" fill="currentColor"/>
</g>
<defs>
<clipPath id="clip0_150_570">
<rect width="24" height="24" fill="currentColor"/>
</clipPath>
</defs>
</svg>
